<mxfile host="65bd71144e">
    <diagram id="WLWYwyjt_8Pe3ke1QhTj" name="Page-1">
        <mxGraphModel dx="1204" dy="798" grid="1" gridSize="10" guides="1" tooltips="1" connect="1" arrows="1" fold="1" page="1" pageScale="1" pageWidth="827" pageHeight="1169" math="0" shadow="0">
            <root>
                <mxCell id="0"/>
                <mxCell id="1" parent="0"/>
                <mxCell id="89" value="" style="group" vertex="1" connectable="0" parent="1">
                    <mxGeometry x="40" y="30" width="740" height="1110" as="geometry"/>
                </mxCell>
                <mxCell id="60" value="LOG_CHEC_*" style="swimlane;startSize=20;horizontal=1;containerType=tree;fontFamily=Helvetica;fontSize=11;fontColor=default;" parent="89" vertex="1">
                    <mxGeometry x="240" width="500" height="940" as="geometry"/>
                </mxCell>
                <mxCell id="21" value="" style="edgeStyle=none;html=1;" parent="60" source="17" edge="1">
                    <mxGeometry relative="1" as="geometry">
                        <mxPoint x="195" y="190" as="targetPoint"/>
                    </mxGeometry>
                </mxCell>
                <mxCell id="17" value="LOG_CHEC_*(INFO)&amp;lt;&amp;lt;" style="rounded=1;whiteSpace=wrap;html=1;" parent="60" vertex="1">
                    <mxGeometry x="115" y="50" width="160" height="60" as="geometry"/>
                </mxCell>
                <mxCell id="23" value="&lt;pre style=&quot;font-size: 9pt ; background-color: rgb(43 , 43 , 43) ; color: rgb(169 , 183 , 198) ; font-family: &amp;#34;jetbrains mono&amp;#34; , monospace&quot;&gt;&lt;span style=&quot;color: rgb(255 , 198 , 109)&quot;&gt;LogStream(,,,)&lt;/span&gt;&lt;/pre&gt;" style="rounded=0;whiteSpace=wrap;html=1;" parent="60" vertex="1">
                    <mxGeometry x="135" y="190" width="120" height="60" as="geometry"/>
                </mxCell>
                <mxCell id="27" value="flag=&lt;span style=&quot;background-color: rgb(43 , 43 , 43) ; color: rgb(169 , 183 , 198) ; font-family: &amp;#34;jetbrains mono&amp;#34; , monospace ; font-size: 9pt&quot;&gt;g_logConfig.*&lt;/span&gt;" style="whiteSpace=wrap;html=1;rounded=0;" parent="60" vertex="1">
                    <mxGeometry x="125" y="340" width="140" height="80" as="geometry"/>
                </mxCell>
                <mxCell id="28" value="" style="edgeStyle=none;html=1;" parent="60" source="23" target="27" edge="1">
                    <mxGeometry relative="1" as="geometry"/>
                </mxCell>
                <mxCell id="32" value="" style="edgeStyle=none;html=1;" parent="60" source="29" edge="1">
                    <mxGeometry relative="1" as="geometry">
                        <mxPoint x="195" y="650" as="targetPoint"/>
                    </mxGeometry>
                </mxCell>
                <mxCell id="29" value="&lt;pre style=&quot;font-size: 9pt ; background-color: rgb(43 , 43 , 43) ; color: rgb(169 , 183 , 198) ; font-family: &amp;#34;jetbrains mono&amp;#34; , monospace&quot;&gt;&lt;span style=&quot;color: rgb(255 , 198 , 109)&quot;&gt;~LogStream&lt;/span&gt;&lt;/pre&gt;" style="whiteSpace=wrap;html=1;rounded=0;" parent="60" vertex="1">
                    <mxGeometry x="135" y="510" width="120" height="60" as="geometry"/>
                </mxCell>
                <mxCell id="30" value="" style="edgeStyle=none;html=1;" parent="60" source="27" target="29" edge="1">
                    <mxGeometry relative="1" as="geometry"/>
                </mxCell>
                <mxCell id="43" value="" style="edgeStyle=none;shape=connector;rounded=1;html=1;labelBackgroundColor=default;fontFamily=Helvetica;fontSize=11;fontColor=default;endArrow=classic;strokeColor=default;" parent="60" source="34" edge="1">
                    <mxGeometry relative="1" as="geometry">
                        <mxPoint x="195" y="830" as="targetPoint"/>
                    </mxGeometry>
                </mxCell>
                <mxCell id="44" value="N" style="edgeLabel;html=1;align=center;verticalAlign=middle;resizable=0;points=[];fontSize=11;fontFamily=Helvetica;fontColor=default;" parent="43" vertex="1" connectable="0">
                    <mxGeometry x="0.3778" relative="1" as="geometry">
                        <mxPoint as="offset"/>
                    </mxGeometry>
                </mxCell>
                <mxCell id="34" value="flag" style="rhombus;whiteSpace=wrap;html=1;" parent="60" vertex="1">
                    <mxGeometry x="155" y="650" width="80" height="80" as="geometry"/>
                </mxCell>
                <mxCell id="39" value="&lt;pre style=&quot;color: rgb(169, 183, 198); font-family: &amp;quot;jetbrains mono&amp;quot;, monospace; font-size: 9pt;&quot;&gt;&lt;span style=&quot;color: #b5b6e3&quot;&gt;google&lt;/span&gt;::LogMessage&lt;/pre&gt;" style="whiteSpace=wrap;html=1;labelBackgroundColor=#330000;" parent="60" vertex="1">
                    <mxGeometry x="295" y="660" width="160" height="60" as="geometry"/>
                </mxCell>
                <mxCell id="40" value="" style="edgeStyle=none;shape=connector;rounded=1;html=1;labelBackgroundColor=default;fontFamily=Helvetica;fontSize=11;fontColor=default;endArrow=classic;strokeColor=default;" parent="60" source="34" target="39" edge="1">
                    <mxGeometry relative="1" as="geometry"/>
                </mxCell>
                <mxCell id="41" value="Y" style="edgeLabel;html=1;align=center;verticalAlign=middle;resizable=0;points=[];fontSize=11;fontFamily=Helvetica;fontColor=default;" parent="40" vertex="1" connectable="0">
                    <mxGeometry x="-0.3333" y="1" relative="1" as="geometry">
                        <mxPoint as="offset"/>
                    </mxGeometry>
                </mxCell>
                <mxCell id="42" value="&lt;pre style=&quot;background-color: #2b2b2b ; color: #a9b7c6 ; font-family: &amp;#34;jetbrains mono&amp;#34; , monospace ; font-size: 9.0pt&quot;&gt;logMessageStashed.Expand&lt;/pre&gt;" style="whiteSpace=wrap;html=1;" parent="60" vertex="1">
                    <mxGeometry x="115" y="830" width="170" height="80" as="geometry"/>
                </mxCell>
                <mxCell id="84" value="" style="endArrow=classic;html=1;rounded=1;labelBackgroundColor=default;fontFamily=Helvetica;fontSize=11;fontColor=default;strokeColor=default;shape=connector;exitX=0.5;exitY=1;exitDx=0;exitDy=0;entryX=1;entryY=0.5;entryDx=0;entryDy=0;" parent="60" source="39" target="42" edge="1">
                    <mxGeometry width="50" height="50" relative="1" as="geometry">
                        <mxPoint x="630" y="830" as="sourcePoint"/>
                        <mxPoint x="680" y="780" as="targetPoint"/>
                        <Array as="points">
                            <mxPoint x="375" y="870"/>
                        </Array>
                    </mxGeometry>
                </mxCell>
                <mxCell id="85" value="&lt;pre style=&quot;background-color: #2b2b2b ; color: #a9b7c6 ; font-family: &amp;#34;jetbrains mono&amp;#34; , monospace ; font-size: 9.0pt&quot;&gt;&lt;span style=&quot;color: #ffc66d&quot;&gt;LoadConfig(,)&lt;/span&gt;&lt;/pre&gt;" style="rounded=1;whiteSpace=wrap;html=1;labelBackgroundColor=#330000;fontFamily=Helvetica;fontSize=11;fontColor=default;" parent="89" vertex="1">
                    <mxGeometry y="350" width="170" height="60" as="geometry"/>
                </mxCell>
                <mxCell id="86" value="" style="endArrow=classic;html=1;rounded=1;labelBackgroundColor=default;fontFamily=Helvetica;fontSize=11;fontColor=default;strokeColor=default;shape=connector;exitX=0.5;exitY=1;exitDx=0;exitDy=0;" parent="89" source="42" edge="1">
                    <mxGeometry width="50" height="50" relative="1" as="geometry">
                        <mxPoint x="440" y="1060" as="sourcePoint"/>
                        <mxPoint x="440" y="1030" as="targetPoint"/>
                    </mxGeometry>
                </mxCell>
                <mxCell id="87" value="&lt;pre style=&quot;background-color: #2b2b2b ; color: #a9b7c6 ; font-family: &amp;quot;jetbrains mono&amp;quot; , monospace ; font-size: 9.0pt&quot;&gt;&lt;span style=&quot;color: #ffc66d&quot;&gt;Logging&lt;/span&gt;()&lt;/pre&gt;" style="rounded=0;whiteSpace=wrap;html=1;labelBackgroundColor=#330000;fontFamily=Helvetica;fontSize=11;fontColor=default;" parent="89" vertex="1">
                    <mxGeometry x="330" y="1030" width="220" height="80" as="geometry"/>
                </mxCell>
                <mxCell id="88" value="" style="endArrow=classic;html=1;rounded=1;labelBackgroundColor=default;fontFamily=Helvetica;fontSize=11;fontColor=default;strokeColor=default;shape=connector;exitX=1;exitY=0.5;exitDx=0;exitDy=0;entryX=0;entryY=0.5;entryDx=0;entryDy=0;" parent="89" source="85" target="27" edge="1">
                    <mxGeometry width="50" height="50" relative="1" as="geometry">
                        <mxPoint x="40" y="550" as="sourcePoint"/>
                        <mxPoint x="90" y="500" as="targetPoint"/>
                    </mxGeometry>
                </mxCell>
            </root>
        </mxGraphModel>
    </diagram>
</mxfile>